<svg xmlns="http://www.w3.org/2000/svg" viewBox="0 0 1280 640"><rect width="1280" height="640" fill="#F6F1E7"/><g transform="translate(199 206) scale(1.9)"><path d="M44 20C33 20 30 25 30 35V49C30 56 26 60 18 60C26 60 30 64 30 71V85C30 95 33 100 44 100" fill="none" stroke="#E0552F" stroke-width="9" stroke-linecap="round" stroke-linejoin="round"/><path d="M76 20C87 20 90 25 90 35V49C90 56 94 60 102 60C94 60 90 64 90 71V85C90 95 87 100 76 100" fill="none" stroke="#E0552F" stroke-width="9" stroke-linecap="round" stroke-linejoin="round"/><path d="M43 47L51 76L60 56L69 76L77 47" fill="none" stroke="#1F1B16" stroke-width="9" stroke-linecap="round" stroke-linejoin="round"/><path d="M134 40L142 80L152 56L162 80L170 40" fill="none" stroke="#1F1B16" stroke-width="9" stroke-linecap="round" stroke-linejoin="round"/><path d="M186 80V40M186 58C186 46 193 40 206 40" fill="none" stroke="#1F1B16" stroke-width="9" stroke-linecap="round" stroke-linejoin="round"/><circle cx="238" cy="60" r="20" fill="none" stroke="#1F1B16" stroke-width="9" stroke-linecap="round" stroke-linejoin="round"/><path d="M258 40V80" fill="none" stroke="#1F1B16" stroke-width="9" stroke-linecap="round" stroke-linejoin="round"/><circle cx="294" cy="60" r="20" fill="none" stroke="#1F1B16" stroke-width="9" stroke-linecap="round" stroke-linejoin="round"/><path d="M274 40V100" fill="none" stroke="#1F1B16" stroke-width="9" stroke-linecap="round" stroke-linejoin="round"/><path d="M330 40V80" fill="none" stroke="#1F1B16" stroke-width="9" stroke-linecap="round" stroke-linejoin="round"/><circle cx="330" cy="23" r="5.6" fill="#1F1B16"/><circle cx="366" cy="60" r="20" fill="none" stroke="#1F1B16" stroke-width="9" stroke-linecap="round" stroke-linejoin="round"/><path d="M386 20V80" fill="none" stroke="#1F1B16" stroke-width="9" stroke-linecap="round" stroke-linejoin="round"/><circle cx="422" cy="60" r="20" fill="none" stroke="#1F1B16" stroke-width="9" stroke-linecap="round" stroke-linejoin="round"/></g></svg>
