<svg xmlns="http://www.w3.org/2000/svg" viewBox="10 12 100 96"><title>wrapido</title><path d="M44 20C33 20 30 25 30 35V49C30 56 26 60 18 60C26 60 30 64 30 71V85C30 95 33 100 44 100" fill="none" stroke="#E0552F" stroke-width="9" stroke-linecap="round" stroke-linejoin="round"/><path d="M76 20C87 20 90 25 90 35V49C90 56 94 60 102 60C94 60 90 64 90 71V85C90 95 87 100 76 100" fill="none" stroke="#E0552F" stroke-width="9" stroke-linecap="round" stroke-linejoin="round"/><path d="M43 47L51 76L60 56L69 76L77 47" fill="none" stroke="#1F1B16" stroke-width="9" stroke-linecap="round" stroke-linejoin="round"/></svg>
